<svg xmlns="http://www.w3.org/2000/svg" xmlns:xlink="http://www.w3.org/1999/xlink" xmlns:lucid="lucid" width="2722.67" height="1589"><g transform="translate(1061.3333333333333 244.99999999999977)" lucid:page-tab-id="0_0"><path d="M-1041.33 476a6 6 0 0 1 6-6H1002a6 6 0 0 1 6 6v640a6 6 0 0 1-6 6h-2037.33a6 6 0 0 1-6-6z" fill="#ced4db"/><path d="M-985.03 470h50.3m25.16 0h50.3m25.15 0h50.3m25.16 0h50.3m25.16 0h50.3m25.15 0h50.3m25.16 0h50.32m25.15 0h50.3m25.16 0h50.3m25.15 0h50.3m25.16 0h50.3m25.16 0h50.3m25.15 0h50.3m25.16 0h50.3m25.17 0h50.3m25.15 0h50.3m25.16 0h50.3m25.16 0h50.3m25.15 0h50.3m25.15 0h50.3m25.16 0h50.3m25.16 0h50.3m25.16 0h50.3m25.16 0h50.3m25.15 0h50.3m25.16 0h50.3m25.15 0H1002l.94.07.9.22.88.35.8.5.72.6.6.72.5.8.37.88.23.9.07.95v23.7m0 23.7v47.42m0 23.7v47.4m0 23.7v47.42m0 23.7v47.4m0 23.7v47.42m0 23.7v47.4m0 23.7v47.42m0 23.7v47.4m0 23.72v23.7l-.07.94-.22.9-.35.88-.5.8-.6.72-.72.6-.8.5-.88.37-.9.23-.95.07h-25.15m-25.15 0h-50.3m-25.16 0h-50.3m-25.16 0h-50.3m-25.15 0h-50.3m-25.16 0h-50.3m-25.16 0h-50.3m-25.15 0h-50.3m-25.15 0h-50.3m-25.16 0h-50.3m-25.16 0h-50.3m-25.15 0h-50.3m-25.16 0h-50.3m-25.16 0H-4.1m-25.14 0h-50.3m-25.16 0H-155m-25.16 0h-50.3m-25.15 0h-50.32m-25.15 0h-50.3m-25.16 0h-50.3m-25.15 0h-50.3m-25.16 0h-50.3m-25.16 0h-50.3m-25.15 0h-50.3m-25.16 0h-50.32m-25.15 0h-50.3m-25.15 0h-50.3m-25.16 0h-25.15l-.94-.07-.92-.22-.86-.35-.8-.5-.72-.6-.6-.72-.5-.8-.36-.88-.22-.9-.07-.95v-23.7m0-23.7v-47.4m0-23.72v-47.4m0-23.7v-47.42m0-23.7v-47.4m0-23.7v-47.42m0-23.7v-47.4m0-23.7V594.5m0-23.7v-47.4m0-23.72V476l.07-.94.22-.9.36-.88.5-.8.6-.72.72-.6.8-.5.87-.37.93-.23.94-.07h25.15" stroke="#3a414a" stroke-width="5" fill="none"/><path d="M62.67-52.67a6 6 0 0 1 6-6h580a6 6 0 0 1 6 6v416a6 6 0 0 1-6 6h-580a6 6 0 0 1-6-6z" fill="#ff8f8f"/><path d="M90.03-58.67h18.32m12.2 0h18.33m12.2 0h18.32m12.2 0h18.33m12.2 0h18.33m12.2 0H261m12.2 0h18.33m12.22 0h18.3m12.23 0h18.3m12.22 0h18.32m12.2 0h18.3m12.22 0h18.32m12.2 0h18.33m12.2 0h18.32m12.2 0h18.32m12.2 0h18.33m12.2 0h18.32m12.2 0h18.33m12.2 0h9.17l.94.08.92.23.87.36.8.48.7.6.62.73.5.8.35.88.22.92.07.93v8.92m0 11.88v17.83m0 11.9v17.82m0 11.88V45.4m0 11.88V75.1m0 11.9v17.82m0 11.9v17.8m0 11.9v17.83m0 11.88v17.83m0 11.9v17.82m0 11.88v17.83m0 11.88v17.83m0 11.9v17.82m0 11.88v17.83m0 11.9v8.9l-.08.94-.23.92-.36.86-.48.8-.6.72-.73.6-.8.5-.88.36-.9.22-.95.07h-9.16m-12.2 0h-18.32m-12.2 0h-18.32m-12.2 0h-18.33m-12.2 0H517.4m-12.2 0h-18.32m-12.2 0h-18.33m-12.2 0h-18.32m-12.22 0h-18.3m-12.2 0h-18.33m-12.2 0h-18.32m-12.2 0H303.7m-12.2 0h-18.33m-12.22 0h-18.3m-12.22 0h-18.32m-12.2 0H181.6m-12.2 0h-18.3m-12.22 0h-18.32m-12.2 0H90.02m-12.2 0h-9.16l-.94-.07-.92-.22-.86-.36-.8-.5-.72-.6-.6-.72-.5-.8-.36-.87-.22-.93-.07-.94v-8.9m0-11.9V324.7m0-11.88V295m0-11.9V265.3m0-11.9v-17.82m0-11.88v-17.83m0-11.9v-17.82m0-11.88v-17.83m0-11.9V116.7m0-11.88V87m0-11.9V57.3m0-11.9V27.57m0-11.88V-2.15m0-11.9v-17.82m0-11.88v-8.92l.07-.93.22-.92.36-.87.5-.8.6-.7.72-.62.8-.5.87-.35.93-.22.94-.07h9.16" stroke="#3a414a" stroke-width="6" fill="none"/><path d="M-19.67 700.8H332a6 6 0 0 0 6-6v-52.77" stroke="#3a414a" stroke-width="3" fill="none"/><path d="M-19.63 702.3h-1.54v-3h1.54z" stroke="#3a414a" stroke-width=".05" fill="#3a414a"/><path d="M338 626.27l4.63 14.26h-9.26z" stroke="#3a414a" stroke-width="3" fill="#3a414a"/><path d="M661 700.8H344a6 6 0 0 1-6-6v-52.77" stroke="#3a414a" stroke-width="3" fill="none"/><path d="M662.5 702.3h-1.54v-3h1.54z" stroke="#3a414a" stroke-width=".05" fill="#3a414a"/><path d="M338 626.27l4.63 14.26h-9.26z" stroke="#3a414a" stroke-width="3" fill="#3a414a"/><path d="M338 933V642.03" stroke="#3a414a" stroke-width="3" fill="none"/><path d="M339.5 934.5h-3v-1.54h3z" stroke="#3a414a" stroke-width=".05" fill="#3a414a"/><path d="M338 626.27l4.63 14.26h-9.26z" stroke="#3a414a" stroke-width="3" fill="#3a414a"/><path d="M631.17 858.47v-101.8a6 6 0 0 0-6-6H344a6 6 0 0 1-6-6V642.03" stroke="#3a414a" stroke-width="3" fill="none"/><path d="M632.67 859.97h-3v-1.54h3z" stroke="#3a414a" stroke-width=".05" fill="#3a414a"/><path d="M338 626.27l4.63 14.26h-9.26z" stroke="#3a414a" stroke-width="3" fill="#3a414a"/><path d="M1318.37 39.73a10.94 10.94 0 0 1 9.23-5.06h273.77c22.07 0 39.96 56.1 39.96 125.33 0 69.22-17.9 125.33-39.96 125.33H1327.6a10.94 10.94 0 0 1-9.23-5.06l-73.48-115.2a9.4 9.4 0 0 1 0-10.13z" stroke="#3a414a" stroke-width="3" fill="#dedeff"/><use xlink:href="#a" transform="matrix(1,0,0,1,1246.6666666666279,39.66666666666663) translate(25.054382716049428 107.73263888888889)"/><use xlink:href="#b" transform="matrix(1,0,0,1,1246.6666666666279,39.66666666666663) translate(209.64697530864197 107.73263888888889)"/><use xlink:href="#c" transform="matrix(1,0,0,1,1246.6666666666279,39.66666666666663) translate(141.8691975308642 145.06597222222223)"/><path d="M210.67 510a6 6 0 0 1 6-6h242.66a6 6 0 0 1 6 6v120.67c-42.53-21.16-69-21.16-85.06-21.16-25.46 0-59.33 21.17-84.8 21.17-15.8 0-42.53 0-84.8-21.16z" stroke="#3a414a" stroke-width="3" fill="#b8f5ed"/><use xlink:href="#d" transform="matrix(1,0,0,1,215.66666666666669,508.99999999999994) translate(45.111111111111114 36.888888888888886)"/><use xlink:href="#e" transform="matrix(1,0,0,1,215.66666666666669,508.99999999999994) translate(77.64814814814815 74.22222222222221)"/><path d="M-40.33 871.73a6 6 0 0 1 6-6h207a6 6 0 0 1 6 6v121.2c-36.58-21.24-59.35-21.24-73.15-21.24-21.9 0-51.03 21.23-72.93 21.23-13.58 0-36.58 0-72.93-21.24z" stroke="#3a414a" stroke-width="3" fill="#00c2a8"/><use xlink:href="#f" transform="matrix(1,0,0,1,-35.333333333333144,870.7333333332945) translate(15.574074074074105 36.888888888888886)"/><use xlink:href="#g" transform="matrix(1,0,0,1,-35.333333333333144,870.7333333332945) translate(95.08024691358025 36.888888888888886)"/><use xlink:href="#h" transform="matrix(1,0,0,1,-35.333333333333144,870.7333333332945) translate(37.22222222222223 74.22222222222221)"/><path d="M69.17 862.73V748.6a6 6 0 0 1 6-6h258.2a6 6 0 0 0 6-6v-95" stroke="#3a414a" stroke-width="3" fill="none"/><path d="M70.67 864.23h-3v-1.53h3z" stroke="#3a414a" stroke-width=".05" fill="#3a414a"/><path d="M339.36 625.82L344 640.1h-9.27z" stroke="#3a414a" stroke-width="3" fill="#3a414a"/><path d="M510.67 867.47a6 6 0 0 1 6-6h229a6 6 0 0 1 6 6v140.4c-40.25-24.45-65.3-24.45-80.5-24.45-24.1 0-56.15 24.45-80.25 24.45-14.94 0-40.25 0-80.25-24.45z" stroke="#3a414a" stroke-width="3" fill="#dedeff"/><use xlink:href="#i" transform="matrix(1,0,0,1,515.6666666666279,866.4666666666278) translate(50.858024691358025 28.388888888888886)"/><use xlink:href="#j" transform="matrix(1,0,0,1,515.6666666666279,866.4666666666278) translate(63.64814814814816 65.72222222222221)"/><use xlink:href="#k" transform="matrix(1,0,0,1,515.6666666666279,866.4666666666278) translate(39.49382716049384 103.05555555555554)"/><path d="M261.33 681a3.2 3.2 0 0 1 2.67-5h148a3.2 3.2 0 0 1 2.67 5l-73.34 110a4 4 0 0 1-6.66 0z" stroke="#3a414a" stroke-width="3" fill="#ff80df"/><path d="M258 942a6 6 0 0 1 6-6h148a6 6 0 0 1 6 6v114c-26.72-20.04-43.36-20.04-53.44-20.04-16 0-37.28 20.04-53.28 20.04-9.92 0-26.72 0-53.28-20.04z" stroke="#3a414a" stroke-width="3" fill="#ff8f8f"/><use xlink:href="#l" transform="matrix(1,0,0,1,263,940.9999999999228) translate(0.7654320987654586 33.326388888888886)"/><use xlink:href="#m" transform="matrix(1,0,0,1,263,940.9999999999228) translate(11.135802469135804 70.65972222222221)"/><path d="M664 611.07a6 6 0 0 1 6-6h210.67a6 6 0 0 1 6 6v185.2c-37.2-31.93-60.35-31.93-74.37-31.93-22.27 0-51.88 31.93-74.15 31.93-13.8 0-37.2 0-74.15-31.93z" stroke="#3a414a" stroke-width="3" fill="#ced4db"/><use xlink:href="#i" transform="matrix(1,0,0,1,668.9999999999999,610.0666666666667) translate(41.858024691358025 43.638888888888886)"/><use xlink:href="#n" transform="matrix(1,0,0,1,668.9999999999999,610.0666666666667) translate(1.2407407407407618 80.97222222222221)"/><use xlink:href="#o" transform="matrix(1,0,0,1,668.9999999999999,610.0666666666667) translate(153.08024691358023 80.97222222222221)"/><use xlink:href="#p" transform="matrix(1,0,0,1,668.9999999999999,610.0666666666667) translate(31.401234567901255 118.30555555555554)"/><path d="M-285.67 611.07a6 6 0 0 1 6-6h251a6 6 0 0 1 6 6v185.2c-43.92-31.93-71.27-31.93-87.84-31.93-26.3 0-61.3 31.93-87.6 31.93-16.3 0-43.9 0-87.57-31.93z" stroke="#3a414a" stroke-width="3" fill="#e3fae3"/><use xlink:href="#i" transform="matrix(1,0,0,1,-280.66666666666663,610.0666666666666) translate(61.858024691358025 43.638888888888886)"/><use xlink:href="#q" transform="matrix(1,0,0,1,-280.66666666666663,610.0666666666666) translate(4.864197530864232 80.97222222222221)"/><use xlink:href="#g" transform="matrix(1,0,0,1,-280.66666666666663,610.0666666666666) translate(149.79012345679013 80.97222222222221)"/><use xlink:href="#r" transform="matrix(1,0,0,1,-280.66666666666663,610.0666666666666) translate(66.9567901234568 118.30555555555554)"/><path d="M193.33 77.33a6 6 0 0 1 6-6h277.34a6 6 0 0 1 6 6v165.34a6 6 0 0 1-6 6H199.33a6 6 0 0 1-6-6z" stroke="#3a414a" stroke-width="3" fill="#c3f7c8"/><use xlink:href="#s" transform="matrix(1,0,0,1,205.33333333337214,83.33333333333331) translate(18.493827160493836 63.388888888888886)"/><use xlink:href="#t" transform="matrix(1,0,0,1,205.33333333337214,83.33333333333331) translate(92.72839506172839 63.388888888888886)"/><use xlink:href="#u" transform="matrix(1,0,0,1,205.33333333337214,83.33333333333331) translate(81.19135802469137 100.72222222222221)"/><path d="M338 501V270.8" stroke="#3a414a" stroke-width="3" fill="none"/><path d="M339.5 502.5h-3v-1.54h3z" stroke="#3a414a" stroke-width=".05" fill="#3a414a"/><path d="M338 255.02l4.63 14.27h-9.26z" stroke="#3a414a" stroke-width="3" fill="#3a414a"/><path d="M485.67 160h735.62" stroke="#3a414a" stroke-width="3" fill="none"/><path d="M485.7 161.5h-1.53v-3h1.53z" stroke="#3a414a" stroke-width=".05" fill="#3a414a"/><path d="M1237.06 160l-14.27 4.63v-9.26z" stroke="#3a414a" stroke-width="3" fill="#3a414a"/><path d="M-833.33 698a6 6 0 0 1 6-6h339.6a6 6 0 0 1 6 6v187.8c-58.72-32.37-95.3-32.37-117.44-32.37-35.16 0-81.92 32.37-117.08 32.37-21.8 0-58.72 0-117.08-32.37z" stroke="#3a414a" stroke-width="3" fill="#54c45e"/><path d="M-813.8 715.1a6 6 0 0 1 6-6h339.6a6 6 0 0 1 6 6v187.8c-58.72-32.37-95.28-32.37-117.43-32.37-35.16 0-81.93 32.37-117.1 32.37-21.8 0-58.7 0-117.07-32.37z" stroke="#3a414a" stroke-width="3" fill="#54c45e"/><path d="M-794.27 732.2a6 6 0 0 1 6-6h339.6a6 6 0 0 1 6 6V920c-58.7-32.37-95.28-32.37-117.43-32.37-35.16 0-81.92 32.37-117.08 32.37-21.8 0-58.72 0-117.1-32.37z" stroke="#3a414a" stroke-width="3" fill="#54c45e"/><g><use xlink:href="#v" transform="matrix(1,0,0,1,-789.266666666667,731.1999999999863) translate(68.61728395061729 81.88888888888889)"/><use xlink:href="#w" transform="matrix(1,0,0,1,-789.266666666667,731.1999999999863) translate(142.76543209876542 81.88888888888889)"/></g><path d="M-638 689V175.1a6 6 0 0 1 6-6h803.2" stroke="#3a414a" stroke-width="3" fill="none"/><path d="M-636.5 690.5h-3v-1.54h3z" stroke="#3a414a" stroke-width=".05" fill="#3a414a"/><path d="M186.98 169.1l-14.27 4.64v-9.27z" stroke="#3a414a" stroke-width="3" fill="#3a414a"/><path d="M-40.33-219a6 6 0 0 1 6-6h761a6 6 0 0 1 6 6v163.33a6 6 0 0 1-6 6h-761a6 6 0 0 1-6-6z" stroke="#000" stroke-opacity="0" fill="#fff" fill-opacity="0"/><g><use xlink:href="#x" transform="matrix(1,0,0,1,-35.333333333333144,-219.99999999999977) translate(32.462962962963616 94.83333333333326)"/><use xlink:href="#y" transform="matrix(1,0,0,1,-35.333333333333144,-219.99999999999977) translate(258.38888888888914 94.83333333333326)"/><use xlink:href="#z" transform="matrix(1,0,0,1,-35.333333333333144,-219.99999999999977) translate(417.46296296296293 94.83333333333326)"/></g><path d="M-369.67 1160a6 6 0 0 1 6-6h746a6 6 0 0 1 6 6v158a6 6 0 0 1-6 6h-746a6 6 0 0 1-6-6z" stroke="#000" stroke-opacity="0" fill="#fff" fill-opacity="0"/><g><use xlink:href="#A" transform="matrix(1,0,0,1,-364.66666666666663,1159.0000000000005) translate(85.85185185185225 93.33333333333326)"/><use xlink:href="#B" transform="matrix(1,0,0,1,-364.66666666666663,1159.0000000000005) translate(252.3333333333335 93.33333333333326)"/></g><defs><path fill="#3a414a" d="M212-179c-10-28-35-45-73-45-59 0-87 40-87 99 0 60 29 101 89 101 43 0 62-24 78-52l27 14C228-24 195 4 139 4 59 4 22-46 18-125c-6-104 99-153 187-111 19 9 31 26 39 46" id="C"/><path fill="#3a414a" d="M100-194c62-1 85 37 85 99 1 63-27 99-86 99S16-35 15-95c0-66 28-99 85-99zM99-20c44 1 53-31 53-75 0-43-8-75-51-75s-53 32-53 75 10 74 51 75" id="D"/><path fill="#3a414a" d="M85-194c31 0 48 13 60 33l-1-100h32l1 261h-30c-2-10 0-23-3-31C134-8 116 4 85 4 32 4 16-35 15-94c0-66 23-100 70-100zm9 24c-40 0-46 34-46 75 0 40 6 74 45 74 42 0 51-32 51-76 0-42-9-74-50-73" id="E"/><path fill="#3a414a" d="M100-194c63 0 86 42 84 106H49c0 40 14 67 53 68 26 1 43-12 49-29l28 8c-11 28-37 45-77 45C44 4 14-33 15-96c1-61 26-98 85-98zm52 81c6-60-76-77-97-28-3 7-6 17-6 28h103" id="F"/><path fill="#3a414a" d="M16-82v-28h88v28H16" id="G"/><path fill="#3a414a" d="M185-189c-5-48-123-54-124 2 14 75 158 14 163 119 3 78-121 87-175 55-17-10-28-26-33-46l33-7c5 56 141 63 141-1 0-78-155-14-162-118-5-82 145-84 179-34 5 7 8 16 11 25" id="H"/><path fill="#3a414a" d="M114-163C36-179 61-72 57 0H25l-1-190h30c1 12-1 29 2 39 6-27 23-49 58-41v29" id="I"/><path fill="#3a414a" d="M108 0H70L1-190h34L89-25l56-165h34" id="J"/><g id="a"><use transform="matrix(0.08641975308641973,0,0,0.08641975308641973,0,0)" xlink:href="#C"/><use transform="matrix(0.08641975308641973,0,0,0.08641975308641973,22.38271604938271,0)" xlink:href="#D"/><use transform="matrix(0.08641975308641973,0,0,0.08641975308641973,39.66666666666666,0)" xlink:href="#E"/><use transform="matrix(0.08641975308641973,0,0,0.08641975308641973,56.950617283950606,0)" xlink:href="#F"/><use transform="matrix(0.08641975308641973,0,0,0.08641975308641973,74.23456790123456,0)" xlink:href="#G"/><use transform="matrix(0.08641975308641973,0,0,0.08641975308641973,84.5185185185185,0)" xlink:href="#H"/><use transform="matrix(0.08641975308641973,0,0,0.08641975308641973,105.25925925925924,0)" xlink:href="#F"/><use transform="matrix(0.08641975308641973,0,0,0.08641975308641973,122.54320987654319,0)" xlink:href="#I"/><use transform="matrix(0.08641975308641973,0,0,0.08641975308641973,132.82716049382714,0)" xlink:href="#J"/><use transform="matrix(0.08641975308641973,0,0,0.08641975308641973,148.38271604938268,0)" xlink:href="#F"/><use transform="matrix(0.08641975308641973,0,0,0.08641975308641973,165.66666666666663,0)" xlink:href="#I"/></g><path fill="#3a414a" d="M30 0v-248h187v28H63v79h144v27H63v87h162V0H30" id="K"/><path fill="#3a414a" d="M117-194c89-4 53 116 60 194h-32v-121c0-31-8-49-39-48C34-167 62-67 57 0H25l-1-190h30c1 10-1 24 2 32 11-22 29-35 61-36" id="L"/><path fill="#3a414a" d="M24-231v-30h32v30H24zM24 0v-190h32V0H24" id="M"/><path fill="#3a414a" d="M210-169c-67 3-38 105-44 169h-31v-121c0-29-5-50-35-48C34-165 62-65 56 0H25l-1-190h30c1 10-1 24 2 32 10-44 99-50 107 0 11-21 27-35 58-36 85-2 47 119 55 194h-31v-121c0-29-5-49-35-48" id="N"/><path fill="#3a414a" d="M59-47c-2 24 18 29 38 22v24C64 9 27 4 27-40v-127H5v-23h24l9-43h21v43h35v23H59v120" id="O"/><g id="b"><use transform="matrix(0.08641975308641973,0,0,0.08641975308641973,0,0)" xlink:href="#K"/><use transform="matrix(0.08641975308641973,0,0,0.08641975308641973,20.740740740740737,0)" xlink:href="#L"/><use transform="matrix(0.08641975308641973,0,0,0.08641975308641973,38.02469135802468,0)" xlink:href="#J"/><use transform="matrix(0.08641975308641973,0,0,0.08641975308641973,53.58024691358023,0)" xlink:href="#M"/><use transform="matrix(0.08641975308641973,0,0,0.08641975308641973,60.4074074074074,0)" xlink:href="#I"/><use transform="matrix(0.08641975308641973,0,0,0.08641975308641973,70.69135802469134,0)" xlink:href="#D"/><use transform="matrix(0.08641975308641973,0,0,0.08641975308641973,87.97530864197529,0)" xlink:href="#L"/><use transform="matrix(0.08641975308641973,0,0,0.08641975308641973,105.25925925925924,0)" xlink:href="#N"/><use transform="matrix(0.08641975308641973,0,0,0.08641975308641973,131.09876543209873,0)" xlink:href="#F"/><use transform="matrix(0.08641975308641973,0,0,0.08641975308641973,148.38271604938268,0)" xlink:href="#L"/><use transform="matrix(0.08641975308641973,0,0,0.08641975308641973,165.66666666666663,0)" xlink:href="#O"/></g><path fill="#3a414a" d="M87 75C49 33 22-17 22-94c0-76 28-126 65-167h31c-38 41-64 92-64 168S80 34 118 75H87" id="P"/><path fill="#3a414a" d="M137 0h-34L2-248h35l83 218 83-218h36" id="Q"/><path fill="#3a414a" d="M135-143c-3-34-86-38-87 0 15 53 115 12 119 90S17 21 10-45l28-5c4 36 97 45 98 0-10-56-113-15-118-90-4-57 82-63 122-42 12 7 21 19 24 35" id="R"/><path fill="#3a414a" d="M96-169c-40 0-48 33-48 73s9 75 48 75c24 0 41-14 43-38l32 2c-6 37-31 61-74 61-59 0-76-41-82-99-10-93 101-131 147-64 4 7 5 14 7 22l-32 3c-4-21-16-35-41-35" id="S"/><path fill="#3a414a" d="M33-261c38 41 65 92 65 168S71 34 33 75H2C39 34 66-17 66-93S39-220 2-261h31" id="T"/><g id="c"><use transform="matrix(0.08641975308641973,0,0,0.08641975308641973,0,0)" xlink:href="#P"/><use transform="matrix(0.08641975308641973,0,0,0.08641975308641973,10.28395061728395,0)" xlink:href="#Q"/><use transform="matrix(0.08641975308641973,0,0,0.08641975308641973,31.024691358024686,0)" xlink:href="#R"/><use transform="matrix(0.08641975308641973,0,0,0.08641975308641973,46.58024691358024,0)" xlink:href="#S"/><use transform="matrix(0.08641975308641973,0,0,0.08641975308641973,62.13580246913579,0)" xlink:href="#D"/><use transform="matrix(0.08641975308641973,0,0,0.08641975308641973,79.41975308641973,0)" xlink:href="#E"/><use transform="matrix(0.08641975308641973,0,0,0.08641975308641973,96.70370370370368,0)" xlink:href="#F"/><use transform="matrix(0.08641975308641973,0,0,0.08641975308641973,113.98765432098763,0)" xlink:href="#T"/></g><path fill="#3a414a" d="M266 0h-40l-56-210L115 0H75L2-248h35L96-30l15-64 43-154h32l59 218 59-218h35" id="U"/><path fill="#3a414a" d="M143 0L79-87 56-68V0H24v-261h32v163l83-92h37l-77 82L181 0h-38" id="V"/><path fill="#3a414a" d="M115-194c55 1 70 41 70 98S169 2 115 4C84 4 66-9 55-30l1 105H24l-1-265h31l2 30c10-21 28-34 59-34zm-8 174c40 0 45-34 45-75s-6-73-45-74c-42 0-51 32-51 76 0 43 10 73 51 73" id="W"/><path fill="#3a414a" d="M141-36C126-15 110 5 73 4 37 3 15-17 15-53c-1-64 63-63 125-63 3-35-9-54-41-54-24 1-41 7-42 31l-33-3c5-37 33-52 76-52 45 0 72 20 72 64v82c-1 20 7 32 28 27v20c-31 9-61-2-59-35zM48-53c0 20 12 33 32 33 41-3 63-29 60-74-43 2-92-5-92 41" id="X"/><g id="d"><use transform="matrix(0.08641975308641973,0,0,0.08641975308641973,0,0)" xlink:href="#U"/><use transform="matrix(0.08641975308641973,0,0,0.08641975308641973,28.69135802469135,0)" xlink:href="#D"/><use transform="matrix(0.08641975308641973,0,0,0.08641975308641973,45.975308641975296,0)" xlink:href="#I"/><use transform="matrix(0.08641975308641973,0,0,0.08641975308641973,56.25925925925926,0)" xlink:href="#V"/><use transform="matrix(0.08641975308641973,0,0,0.08641975308641973,71.81481481481481,0)" xlink:href="#R"/><use transform="matrix(0.08641975308641973,0,0,0.08641975308641973,87.37037037037037,0)" xlink:href="#W"/><use transform="matrix(0.08641975308641973,0,0,0.08641975308641973,104.65432098765432,0)" xlink:href="#X"/><use transform="matrix(0.08641975308641973,0,0,0.08641975308641973,121.93827160493827,0)" xlink:href="#S"/><use transform="matrix(0.08641975308641973,0,0,0.08641975308641973,137.49382716049382,0)" xlink:href="#F"/></g><path fill="#3a414a" d="M101-234c-31-9-42 10-38 44h38v23H63V0H32v-167H5v-23h27c-7-52 17-82 69-68v24" id="Y"/><path fill="#3a414a" d="M177-190C167-65 218 103 67 71c-23-6-38-20-44-43l32-5c15 47 100 32 89-28v-30C133-14 115 1 83 1 29 1 15-40 15-95c0-56 16-97 71-98 29-1 48 16 59 35 1-10 0-23 2-32h30zM94-22c36 0 50-32 50-73 0-42-14-75-50-75-39 0-46 34-46 75s6 73 46 73" id="Z"/><g id="e"><use transform="matrix(0.08641975308641973,0,0,0.08641975308641973,0,0)" xlink:href="#C"/><use transform="matrix(0.08641975308641973,0,0,0.08641975308641973,22.38271604938271,0)" xlink:href="#D"/><use transform="matrix(0.08641975308641973,0,0,0.08641975308641973,39.66666666666666,0)" xlink:href="#L"/><use transform="matrix(0.08641975308641973,0,0,0.08641975308641973,56.950617283950606,0)" xlink:href="#Y"/><use transform="matrix(0.08641975308641973,0,0,0.08641975308641973,65.59259259259258,0)" xlink:href="#M"/><use transform="matrix(0.08641975308641973,0,0,0.08641975308641973,72.41975308641975,0)" xlink:href="#Z"/></g><path fill="#3a414a" d="M160-131c35 5 61 23 61 61C221 17 115-2 30 0v-248c76 3 177-17 177 60 0 33-19 50-47 57zm-97-11c50-1 110 9 110-42 0-47-63-36-110-37v79zm0 115c55-2 124 14 124-45 0-56-70-42-124-44v89" id="aa"/><g id="f"><use transform="matrix(0.08641975308641973,0,0,0.08641975308641973,0,0)" xlink:href="#aa"/><use transform="matrix(0.08641975308641973,0,0,0.08641975308641973,20.740740740740737,0)" xlink:href="#X"/><use transform="matrix(0.08641975308641973,0,0,0.08641975308641973,38.02469135802468,0)" xlink:href="#R"/><use transform="matrix(0.08641975308641973,0,0,0.08641975308641973,53.58024691358023,0)" xlink:href="#F"/></g><path fill="#3a414a" d="M30-248c118-7 216 8 213 122C240-48 200 0 122 0H30v-248zM63-27c89 8 146-16 146-99s-60-101-146-95v194" id="ab"/><g id="g"><use transform="matrix(0.08641975308641973,0,0,0.08641975308641973,0,0)" xlink:href="#ab"/><use transform="matrix(0.08641975308641973,0,0,0.08641975308641973,22.38271604938271,0)" xlink:href="#D"/><use transform="matrix(0.08641975308641973,0,0,0.08641975308641973,39.66666666666666,0)" xlink:href="#S"/><use transform="matrix(0.08641975308641973,0,0,0.08641975308641973,55.22222222222221,0)" xlink:href="#V"/><use transform="matrix(0.08641975308641973,0,0,0.08641975308641973,70.77777777777776,0)" xlink:href="#F"/><use transform="matrix(0.08641975308641973,0,0,0.08641975308641973,88.0617283950617,0)" xlink:href="#I"/></g><g id="h"><use transform="matrix(0.08641975308641973,0,0,0.08641975308641973,0,0)" xlink:href="#C"/><use transform="matrix(0.08641975308641973,0,0,0.08641975308641973,22.38271604938271,0)" xlink:href="#D"/><use transform="matrix(0.08641975308641973,0,0,0.08641975308641973,39.66666666666666,0)" xlink:href="#L"/><use transform="matrix(0.08641975308641973,0,0,0.08641975308641973,56.950617283950606,0)" xlink:href="#O"/><use transform="matrix(0.08641975308641973,0,0,0.08641975308641973,65.59259259259258,0)" xlink:href="#X"/><use transform="matrix(0.08641975308641973,0,0,0.08641975308641973,82.87654320987653,0)" xlink:href="#M"/><use transform="matrix(0.08641975308641973,0,0,0.08641975308641973,89.70370370370371,0)" xlink:href="#L"/><use transform="matrix(0.08641975308641973,0,0,0.08641975308641973,106.98765432098764,0)" xlink:href="#F"/><use transform="matrix(0.08641975308641973,0,0,0.08641975308641973,124.2716049382716,0)" xlink:href="#I"/></g><path fill="#3a414a" d="M24 0v-261h32V0H24" id="ac"/><g id="i"><use transform="matrix(0.08641975308641973,0,0,0.08641975308641973,0,0)" xlink:href="#P"/><use transform="matrix(0.08641975308641973,0,0,0.08641975308641973,10.28395061728395,0)" xlink:href="#D"/><use transform="matrix(0.08641975308641973,0,0,0.08641975308641973,27.567901234567895,0)" xlink:href="#W"/><use transform="matrix(0.08641975308641973,0,0,0.08641975308641973,44.85185185185184,0)" xlink:href="#O"/><use transform="matrix(0.08641975308641973,0,0,0.08641975308641973,53.493827160493815,0)" xlink:href="#M"/><use transform="matrix(0.08641975308641973,0,0,0.08641975308641973,60.32098765432097,0)" xlink:href="#D"/><use transform="matrix(0.08641975308641973,0,0,0.08641975308641973,77.60493827160492,0)" xlink:href="#L"/><use transform="matrix(0.08641975308641973,0,0,0.08641975308641973,94.88888888888887,0)" xlink:href="#X"/><use transform="matrix(0.08641975308641973,0,0,0.08641975308641973,112.17283950617282,0)" xlink:href="#ac"/><use transform="matrix(0.08641975308641973,0,0,0.08641975308641973,119,0)" xlink:href="#T"/></g><g id="j"><use transform="matrix(0.08641975308641973,0,0,0.08641975308641973,0,0)" xlink:href="#Q"/><use transform="matrix(0.08641975308641973,0,0,0.08641975308641973,20.740740740740737,0)" xlink:href="#R"/><use transform="matrix(0.08641975308641973,0,0,0.08641975308641973,36.29629629629629,0)" xlink:href="#S"/><use transform="matrix(0.08641975308641973,0,0,0.08641975308641973,51.85185185185184,0)" xlink:href="#D"/><use transform="matrix(0.08641975308641973,0,0,0.08641975308641973,69.13580246913578,0)" xlink:href="#E"/><use transform="matrix(0.08641975308641973,0,0,0.08641975308641973,86.41975308641973,0)" xlink:href="#F"/></g><path fill="#3a414a" d="M141 0L90-78 38 0H4l68-98-65-92h35l48 74 47-74h35l-64 92 68 98h-35" id="ad"/><g id="k"><use transform="matrix(0.08641975308641973,0,0,0.08641975308641973,0,0)" xlink:href="#K"/><use transform="matrix(0.08641975308641973,0,0,0.08641975308641973,20.740740740740737,0)" xlink:href="#ad"/><use transform="matrix(0.08641975308641973,0,0,0.08641975308641973,36.29629629629629,0)" xlink:href="#O"/><use transform="matrix(0.08641975308641973,0,0,0.08641975308641973,44.938271604938265,0)" xlink:href="#F"/><use transform="matrix(0.08641975308641973,0,0,0.08641975308641973,62.22222222222222,0)" xlink:href="#L"/><use transform="matrix(0.08641975308641973,0,0,0.08641975308641973,79.50617283950616,0)" xlink:href="#R"/><use transform="matrix(0.08641975308641973,0,0,0.08641975308641973,95.06172839506172,0)" xlink:href="#M"/><use transform="matrix(0.08641975308641973,0,0,0.08641975308641973,101.88888888888889,0)" xlink:href="#D"/><use transform="matrix(0.08641975308641973,0,0,0.08641975308641973,119.17283950617283,0)" xlink:href="#L"/><use transform="matrix(0.08641975308641973,0,0,0.08641975308641973,136.45679012345678,0)" xlink:href="#R"/></g><path fill="#3a414a" d="M233-177c-1 41-23 64-60 70L243 0h-38l-65-103H63V0H30v-248c88 3 205-21 203 71zM63-129c60-2 137 13 137-47 0-61-80-42-137-45v92" id="ae"/><path fill="#3a414a" d="M84 4C-5 8 30-112 23-190h32v120c0 31 7 50 39 49 72-2 45-101 50-169h31l1 190h-30c-1-10 1-25-2-33-11 22-28 36-60 37" id="af"/><g id="l"><use transform="matrix(0.08641975308641973,0,0,0.08641975308641973,0,0)" xlink:href="#ae"/><use transform="matrix(0.08641975308641973,0,0,0.08641975308641973,22.38271604938271,0)" xlink:href="#F"/><use transform="matrix(0.08641975308641973,0,0,0.08641975308641973,39.66666666666666,0)" xlink:href="#R"/><use transform="matrix(0.08641975308641973,0,0,0.08641975308641973,55.22222222222221,0)" xlink:href="#D"/><use transform="matrix(0.08641975308641973,0,0,0.08641975308641973,72.50617283950615,0)" xlink:href="#af"/><use transform="matrix(0.08641975308641973,0,0,0.08641975308641973,89.7901234567901,0)" xlink:href="#I"/><use transform="matrix(0.08641975308641973,0,0,0.08641975308641973,100.07407407407405,0)" xlink:href="#S"/><use transform="matrix(0.08641975308641973,0,0,0.08641975308641973,115.6296296296296,0)" xlink:href="#F"/><use transform="matrix(0.08641975308641973,0,0,0.08641975308641973,132.91358024691354,0)" xlink:href="#R"/></g><g id="m"><use transform="matrix(0.08641975308641973,0,0,0.08641975308641973,0,0)" xlink:href="#H"/><use transform="matrix(0.08641975308641973,0,0,0.08641975308641973,20.740740740740737,0)" xlink:href="#W"/><use transform="matrix(0.08641975308641973,0,0,0.08641975308641973,38.02469135802468,0)" xlink:href="#F"/><use transform="matrix(0.08641975308641973,0,0,0.08641975308641973,55.30864197530863,0)" xlink:href="#S"/><use transform="matrix(0.08641975308641973,0,0,0.08641975308641973,70.86419753086419,0)" xlink:href="#M"/><use transform="matrix(0.08641975308641973,0,0,0.08641975308641973,77.69135802469135,0)" xlink:href="#Y"/><use transform="matrix(0.08641975308641973,0,0,0.08641975308641973,86.33333333333333,0)" xlink:href="#M"/><use transform="matrix(0.08641975308641973,0,0,0.08641975308641973,93.1604938271605,0)" xlink:href="#F"/><use transform="matrix(0.08641975308641973,0,0,0.08641975308641973,110.44444444444444,0)" xlink:href="#E"/></g><g id="n"><use transform="matrix(0.08641975308641973,0,0,0.08641975308641973,0,0)" xlink:href="#C"/><use transform="matrix(0.08641975308641973,0,0,0.08641975308641973,22.38271604938271,0)" xlink:href="#D"/><use transform="matrix(0.08641975308641973,0,0,0.08641975308641973,39.66666666666666,0)" xlink:href="#N"/><use transform="matrix(0.08641975308641973,0,0,0.08641975308641973,65.50617283950615,0)" xlink:href="#N"/><use transform="matrix(0.08641975308641973,0,0,0.08641975308641973,91.34567901234564,0)" xlink:href="#X"/><use transform="matrix(0.08641975308641973,0,0,0.08641975308641973,108.62962962962959,0)" xlink:href="#L"/><use transform="matrix(0.08641975308641973,0,0,0.08641975308641973,125.91358024691354,0)" xlink:href="#E"/></g><path fill="#3a414a" d="M30 0v-248h33v221h125V0H30" id="ag"/><g id="o"><use transform="matrix(0.08641975308641973,0,0,0.08641975308641973,0,0)" xlink:href="#ag"/><use transform="matrix(0.08641975308641973,0,0,0.08641975308641973,17.283950617283946,0)" xlink:href="#M"/><use transform="matrix(0.08641975308641973,0,0,0.08641975308641973,24.111111111111107,0)" xlink:href="#L"/><use transform="matrix(0.08641975308641973,0,0,0.08641975308641973,41.39506172839505,0)" xlink:href="#F"/></g><path fill="#3a414a" d="M205 0l-28-72H64L36 0H1l101-248h38L239 0h-34zm-38-99l-47-123c-12 45-31 82-46 123h93" id="ah"/><g id="p"><use transform="matrix(0.08641975308641973,0,0,0.08641975308641973,0,0)" xlink:href="#ah"/><use transform="matrix(0.08641975308641973,0,0,0.08641975308641973,20.740740740740737,0)" xlink:href="#I"/><use transform="matrix(0.08641975308641973,0,0,0.08641975308641973,31.024691358024686,0)" xlink:href="#Z"/><use transform="matrix(0.08641975308641973,0,0,0.08641975308641973,48.30864197530863,0)" xlink:href="#af"/><use transform="matrix(0.08641975308641973,0,0,0.08641975308641973,65.59259259259258,0)" xlink:href="#N"/><use transform="matrix(0.08641975308641973,0,0,0.08641975308641973,91.43209876543207,0)" xlink:href="#F"/><use transform="matrix(0.08641975308641973,0,0,0.08641975308641973,108.71604938271602,0)" xlink:href="#L"/><use transform="matrix(0.08641975308641973,0,0,0.08641975308641973,125.99999999999997,0)" xlink:href="#O"/><use transform="matrix(0.08641975308641973,0,0,0.08641975308641973,134.64197530864195,0)" xlink:href="#R"/></g><g id="q"><use transform="matrix(0.08641975308641973,0,0,0.08641975308641973,0,0)" xlink:href="#ah"/><use transform="matrix(0.08641975308641973,0,0,0.08641975308641973,20.740740740740737,0)" xlink:href="#E"/><use transform="matrix(0.08641975308641973,0,0,0.08641975308641973,38.02469135802468,0)" xlink:href="#E"/><use transform="matrix(0.08641975308641973,0,0,0.08641975308641973,55.30864197530863,0)" xlink:href="#M"/><use transform="matrix(0.08641975308641973,0,0,0.08641975308641973,62.13580246913579,0)" xlink:href="#O"/><use transform="matrix(0.08641975308641973,0,0,0.08641975308641973,70.77777777777776,0)" xlink:href="#M"/><use transform="matrix(0.08641975308641973,0,0,0.08641975308641973,77.60493827160492,0)" xlink:href="#D"/><use transform="matrix(0.08641975308641973,0,0,0.08641975308641973,94.88888888888887,0)" xlink:href="#L"/><use transform="matrix(0.08641975308641973,0,0,0.08641975308641973,112.17283950617282,0)" xlink:href="#X"/><use transform="matrix(0.08641975308641973,0,0,0.08641975308641973,129.45679012345676,0)" xlink:href="#ac"/></g><g id="r"><use transform="matrix(0.08641975308641973,0,0,0.08641975308641973,0,0)" xlink:href="#H"/><use transform="matrix(0.08641975308641973,0,0,0.08641975308641973,20.740740740740737,0)" xlink:href="#F"/><use transform="matrix(0.08641975308641973,0,0,0.08641975308641973,38.02469135802468,0)" xlink:href="#I"/><use transform="matrix(0.08641975308641973,0,0,0.08641975308641973,48.30864197530863,0)" xlink:href="#J"/><use transform="matrix(0.08641975308641973,0,0,0.08641975308641973,63.86419753086418,0)" xlink:href="#M"/><use transform="matrix(0.08641975308641973,0,0,0.08641975308641973,70.69135802469134,0)" xlink:href="#S"/><use transform="matrix(0.08641975308641973,0,0,0.08641975308641973,86.2469135802469,0)" xlink:href="#F"/><use transform="matrix(0.08641975308641973,0,0,0.08641975308641973,103.53086419753085,0)" xlink:href="#R"/></g><path fill="#3a414a" d="M143 4C61 4 22-44 18-125c-5-107 100-154 193-111 17 8 29 25 37 43l-32 9c-13-25-37-40-76-40-61 0-88 39-88 99 0 61 29 100 91 101 35 0 62-11 79-27v-45h-74v-28h105v86C228-13 192 4 143 4" id="ai"/><g id="s"><use transform="matrix(0.08641975308641973,0,0,0.08641975308641973,0,0)" xlink:href="#ai"/><use transform="matrix(0.08641975308641973,0,0,0.08641975308641973,24.197530864197525,0)" xlink:href="#M"/><use transform="matrix(0.08641975308641973,0,0,0.08641975308641973,31.024691358024686,0)" xlink:href="#Z"/><use transform="matrix(0.08641975308641973,0,0,0.08641975308641973,48.30864197530863,0)" xlink:href="#D"/></g><g id="t"><use transform="matrix(0.08641975308641973,0,0,0.08641975308641973,0,0)" xlink:href="#U"/><use transform="matrix(0.08641975308641973,0,0,0.08641975308641973,28.69135802469135,0)" xlink:href="#D"/><use transform="matrix(0.08641975308641973,0,0,0.08641975308641973,45.975308641975296,0)" xlink:href="#I"/><use transform="matrix(0.08641975308641973,0,0,0.08641975308641973,56.25925925925926,0)" xlink:href="#V"/><use transform="matrix(0.08641975308641973,0,0,0.08641975308641973,71.81481481481481,0)" xlink:href="#R"/><use transform="matrix(0.08641975308641973,0,0,0.08641975308641973,87.37037037037037,0)" xlink:href="#W"/><use transform="matrix(0.08641975308641973,0,0,0.08641975308641973,104.65432098765432,0)" xlink:href="#X"/><use transform="matrix(0.08641975308641973,0,0,0.08641975308641973,121.93827160493827,0)" xlink:href="#S"/><use transform="matrix(0.08641975308641973,0,0,0.08641975308641973,137.49382716049382,0)" xlink:href="#F"/></g><path fill="#3a414a" d="M179-190L93 31C79 59 56 82 12 73V49c39 6 53-20 64-50L1-190h34L92-34l54-156h33" id="aj"/><g id="u"><use transform="matrix(0.08641975308641973,0,0,0.08641975308641973,0,0)" xlink:href="#H"/><use transform="matrix(0.08641975308641973,0,0,0.08641975308641973,20.740740740740737,0)" xlink:href="#aj"/><use transform="matrix(0.08641975308641973,0,0,0.08641975308641973,36.29629629629629,0)" xlink:href="#R"/><use transform="matrix(0.08641975308641973,0,0,0.08641975308641973,51.85185185185184,0)" xlink:href="#O"/><use transform="matrix(0.08641975308641973,0,0,0.08641975308641973,60.493827160493815,0)" xlink:href="#F"/><use transform="matrix(0.08641975308641973,0,0,0.08641975308641973,77.77777777777776,0)" xlink:href="#N"/></g><path fill="#3a414a" d="M232-93c-1 65-40 97-104 97C67 4 28-28 28-90v-158h33c8 89-33 224 67 224 102 0 64-133 71-224h33v155" id="ak"/><g id="v"><use transform="matrix(0.08641975308641973,0,0,0.08641975308641973,0,0)" xlink:href="#ak"/><use transform="matrix(0.08641975308641973,0,0,0.08641975308641973,22.38271604938271,0)" xlink:href="#R"/><use transform="matrix(0.08641975308641973,0,0,0.08641975308641973,37.938271604938265,0)" xlink:href="#F"/><use transform="matrix(0.08641975308641973,0,0,0.08641975308641973,55.22222222222221,0)" xlink:href="#I"/></g><path fill="#3a414a" d="M30-248c87 1 191-15 191 75 0 78-77 80-158 76V0H30v-248zm33 125c57 0 124 11 124-50 0-59-68-47-124-48v98" id="al"/><path fill="#3a414a" d="M24-231v-30h32v30H24zM-9 49c24 4 33-6 33-30v-209h32V24c2 40-23 58-65 49V49" id="am"/><g id="w"><use transform="matrix(0.08641975308641973,0,0,0.08641975308641973,0,0)" xlink:href="#al"/><use transform="matrix(0.08641975308641973,0,0,0.08641975308641973,20.740740740740737,0)" xlink:href="#I"/><use transform="matrix(0.08641975308641973,0,0,0.08641975308641973,31.024691358024686,0)" xlink:href="#D"/><use transform="matrix(0.08641975308641973,0,0,0.08641975308641973,48.30864197530863,0)" xlink:href="#am"/><use transform="matrix(0.08641975308641973,0,0,0.08641975308641973,55.13580246913579,0)" xlink:href="#F"/><use transform="matrix(0.08641975308641973,0,0,0.08641975308641973,72.41975308641973,0)" xlink:href="#S"/><use transform="matrix(0.08641975308641973,0,0,0.08641975308641973,87.97530864197529,0)" xlink:href="#O"/></g><path fill="#ced4db" d="M169-182c-1-43-94-46-97-3 18 66 151 10 154 114 3 95-165 93-204 36-6-8-10-19-12-30l50-8c3 46 112 56 116 5-17-69-150-10-154-114-4-87 153-88 188-35 5 8 8 18 10 28" id="an"/><path fill="#ced4db" d="M185-48c-13 30-37 53-82 52C43 2 14-33 14-96s30-98 90-98c62 0 83 45 84 108H66c0 31 8 55 39 56 18 0 30-7 34-22zm-45-69c5-46-57-63-70-21-2 6-4 13-4 21h74" id="ao"/><path fill="#ced4db" d="M135-150c-39-12-60 13-60 57V0H25l-1-190h47c2 13-1 29 3 40 6-28 27-53 61-41v41" id="ap"/><path fill="#ced4db" d="M128 0H69L1-190h53L99-40l48-150h52" id="aq"/><g id="x"><use transform="matrix(0.18518518518518487,0,0,0.18518518518518487,0,0)" xlink:href="#an"/><use transform="matrix(0.18518518518518487,0,0,0.18518518518518487,44.44444444444437,0)" xlink:href="#ao"/><use transform="matrix(0.18518518518518487,0,0,0.18518518518518487,81.48148148148135,0)" xlink:href="#ap"/><use transform="matrix(0.18518518518518487,0,0,0.18518518518518487,107.40740740740722,0)" xlink:href="#aq"/><use transform="matrix(0.18518518518518487,0,0,0.18518518518518487,144.4444444444442,0)" xlink:href="#ao"/><use transform="matrix(0.18518518518518487,0,0,0.18518518518518487,181.48148148148118,0)" xlink:href="#ap"/></g><path fill="#ced4db" d="M25-224v-37h50v37H25zM25 0v-190h50V0H25" id="ar"/><path fill="#ced4db" d="M88-194c31-1 46 15 58 34l-1-101h50l1 261h-48c-2-10 0-23-3-31C134-8 116 4 84 4 32 4 16-41 15-95c0-56 19-97 73-99zm17 164c33 0 40-30 41-66 1-37-9-64-41-64s-38 30-39 65c0 43 13 65 39 65" id="as"/><g id="y"><use transform="matrix(0.18518518518518487,0,0,0.18518518518518487,0,0)" xlink:href="#an"/><use transform="matrix(0.18518518518518487,0,0,0.18518518518518487,44.44444444444437,0)" xlink:href="#ar"/><use transform="matrix(0.18518518518518487,0,0,0.18518518518518487,62.96296296296287,0)" xlink:href="#as"/><use transform="matrix(0.18518518518518487,0,0,0.18518518518518487,103.51851851851835,0)" xlink:href="#ao"/></g><path fill="#ced4db" d="M140-251c80 0 125 45 125 126S219 4 139 4C58 4 15-44 15-125s44-126 125-126zm-1 214c52 0 73-35 73-88 0-50-21-86-72-86-52 0-73 35-73 86s22 88 72 88" id="at"/><path fill="#ced4db" d="M135-194c53 0 70 44 70 98 0 56-19 98-73 100-31 1-45-17-59-34 3 33 2 69 2 105H25l-1-265h48c2 10 0 23 3 31 11-24 29-35 60-35zM114-30c33 0 39-31 40-66 0-38-9-64-40-64-56 0-55 130 0 130" id="au"/><path fill="#ced4db" d="M133-34C117-15 103 5 69 4 32 3 11-16 11-54c-1-60 55-63 116-61 1-26-3-47-28-47-18 1-26 9-28 27l-52-2c7-38 36-58 82-57s74 22 75 68l1 82c-1 14 12 18 25 15v27c-30 8-71 5-69-32zm-48 3c29 0 43-24 42-57-32 0-66-3-65 30 0 17 8 27 23 27" id="av"/><path fill="#ced4db" d="M115-3C79 11 28 4 28-45v-112H4v-33h27l15-45h31v45h36v33H77v99c-1 23 16 31 38 25v30" id="aw"/><path fill="#ced4db" d="M110-194c64 0 96 36 96 99 0 64-35 99-97 99-61 0-95-36-95-99 0-62 34-99 96-99zm-1 164c35 0 45-28 45-65 0-40-10-65-43-65-34 0-45 26-45 65 0 36 10 65 43 65" id="ax"/><path fill="#ced4db" d="M135-194c87-1 58 113 63 194h-50c-7-57 23-157-34-157-59 0-34 97-39 157H25l-1-190h47c2 12-1 28 3 38 12-26 28-41 61-42" id="ay"/><g id="z"><use transform="matrix(0.18518518518518487,0,0,0.18518518518518487,0,0)" xlink:href="#at"/><use transform="matrix(0.18518518518518487,0,0,0.18518518518518487,51.85185185185176,0)" xlink:href="#au"/><use transform="matrix(0.18518518518518487,0,0,0.18518518518518487,92.40740740740725,0)" xlink:href="#ao"/><use transform="matrix(0.18518518518518487,0,0,0.18518518518518487,129.44444444444423,0)" xlink:href="#ap"/><use transform="matrix(0.18518518518518487,0,0,0.18518518518518487,155.3703703703701,0)" xlink:href="#av"/><use transform="matrix(0.18518518518518487,0,0,0.18518518518518487,192.40740740740708,0)" xlink:href="#aw"/><use transform="matrix(0.18518518518518487,0,0,0.18518518518518487,214.4444444444441,0)" xlink:href="#ar"/><use transform="matrix(0.18518518518518487,0,0,0.18518518518518487,232.96296296296256,0)" xlink:href="#ax"/><use transform="matrix(0.18518518518518487,0,0,0.18518518518518487,273.518518518518,0)" xlink:href="#ay"/></g><path fill="#ced4db" d="M238-95c0 69-44 99-111 99C63 4 22-25 22-93v-155h51v151c-1 38 19 59 55 60 90 1 49-130 58-211h52v153" id="az"/><path fill="#ced4db" d="M137-138c1-29-70-34-71-4 15 46 118 7 119 86 1 83-164 76-172 9l43-7c4 19 20 25 44 25 33 8 57-30 24-41C81-84 22-81 20-136c-2-80 154-74 161-7" id="aA"/><g id="A"><use transform="matrix(0.18518518518518493,0,0,0.18518518518518493,0,0)" xlink:href="#az"/><use transform="matrix(0.18518518518518493,0,0,0.18518518518518493,47.9629629629629,0)" xlink:href="#aA"/><use transform="matrix(0.18518518518518493,0,0,0.18518518518518493,84.99999999999989,0)" xlink:href="#ao"/><use transform="matrix(0.18518518518518493,0,0,0.18518518518518493,122.03703703703687,0)" xlink:href="#ap"/></g><path fill="#ced4db" d="M67-125c0 53 21 87 73 88 37 1 54-22 65-47l45 17C233-25 199 4 140 4 58 4 20-42 15-125 8-235 124-281 211-232c18 10 29 29 36 50l-46 12c-8-25-30-41-62-41-52 0-71 34-72 86" id="aB"/><path fill="#ced4db" d="M121-226c-27-7-43 5-38 36h38v33H83V0H34v-157H6v-33h28c-9-59 32-81 87-68v32" id="aC"/><path fill="#ced4db" d="M195-6C206 82 75 100 31 46c-4-6-6-13-8-21l49-6c3 16 16 24 34 25 40 0 42-37 40-79-11 22-30 35-61 35-53 0-70-43-70-97 0-56 18-96 73-97 30 0 46 14 59 34l2-30h47zm-90-29c32 0 41-27 41-63 0-35-9-62-40-62-32 0-39 29-40 63 0 36 9 62 39 62" id="aD"/><path fill="#ced4db" d="M85 4C-2 5 27-109 22-190h50c7 57-23 150 33 157 60-5 35-97 40-157h50l1 190h-47c-2-12 1-28-3-38-12 25-28 42-61 42" id="aE"/><path fill="#ced4db" d="M135-194c52 0 70 43 70 98 0 56-19 99-73 100-30 1-46-15-58-35L72 0H24l1-261h50v104c11-23 29-37 60-37zM114-30c31 0 40-27 40-66 0-37-7-63-39-63s-41 28-41 65c0 36 8 64 40 64" id="aF"/><path fill="#ced4db" d="M25 0v-261h50V0H25" id="aG"/><g id="B"><use transform="matrix(0.18518518518518493,0,0,0.18518518518518493,0,0)" xlink:href="#aB"/><use transform="matrix(0.18518518518518493,0,0,0.18518518518518493,47.9629629629629,0)" xlink:href="#ax"/><use transform="matrix(0.18518518518518493,0,0,0.18518518518518493,88.51851851851839,0)" xlink:href="#ay"/><use transform="matrix(0.18518518518518493,0,0,0.18518518518518493,129.0740740740739,0)" xlink:href="#aC"/><use transform="matrix(0.18518518518518493,0,0,0.18518518518518493,151.11111111111092,0)" xlink:href="#ar"/><use transform="matrix(0.18518518518518493,0,0,0.18518518518518493,169.62962962962942,0)" xlink:href="#aD"/><use transform="matrix(0.18518518518518493,0,0,0.18518518518518493,210.18518518518493,0)" xlink:href="#aE"/><use transform="matrix(0.18518518518518493,0,0,0.18518518518518493,250.74074074074042,0)" xlink:href="#ap"/><use transform="matrix(0.18518518518518493,0,0,0.18518518518518493,276.6666666666663,0)" xlink:href="#av"/><use transform="matrix(0.18518518518518493,0,0,0.18518518518518493,313.7037037037033,0)" xlink:href="#aF"/><use transform="matrix(0.18518518518518493,0,0,0.18518518518518493,354.2592592592588,0)" xlink:href="#aG"/><use transform="matrix(0.18518518518518493,0,0,0.18518518518518493,372.77777777777726,0)" xlink:href="#ao"/></g></defs></g></svg>